<?xml version="1.0" encoding="iso-8859-1"?>
<!-- Generator: Adobe Illustrator 19.0.0, SVG Export Plug-In . SVG Version: 6.00 Build 0)  -->
<svg version="1.1" id="Capa_1" xmlns="http://www.w3.org/2000/svg" xmlns:xlink="http://www.w3.org/1999/xlink" x="0px" y="0px"
	 viewBox="0 0 512 512" style="enable-background:new 0 0 512 512;" xml:space="preserve">
<path style="fill:#F1F2F2;" d="M480,241.126v95.104c0,46.289-37.524,83.813-83.813,83.813H115.813
	C69.524,420.043,32,382.518,32,336.23v-95.104H480z"/>
<path style="fill:#FFFFFF;" d="M259,241.126h220.958c12.173,0,22.042-9.868,22.042-22.042l0,0c0-12.173-9.868-22.042-22.042-22.042
	H32.042C19.869,197.042,10,206.91,10,219.084l0,0c0,12.173,9.868,22.042,22.042,22.042H64"/>
<path style="fill:#F9AE18;" d="M256,197.043H64V353.34c0,0.416,0.44,0.684,0.809,0.493l15.199-7.881
	c10.039-5.205,21.978-5.205,32.017,0.001l0.005,0.003c10.039,5.206,21.977,5.206,32.017,0.001l0.086-0.044
	c9.981-5.175,21.855-5.158,31.821,0.048l0,0c9.999,5.222,21.911,5.24,31.926,0.048l0.091-0.047
	c10.039-5.205,21.978-5.205,32.017,0.001l15.204,7.884c0.369,0.191,0.809-0.077,0.809-0.493L256,197.043L256,197.043z"/>
<path style="fill:#2DC1CF;" d="M442,69.029h9c16.016,0,29,12.984,29,29v9v90h-38v-77c0-7.18-5.82-13-13-13h-78v-8.848
	c0-16.1,13.052-29.152,29.152-29.152C380.152,69.029,442,69.029,442,69.029z"/>
<path d="M512,219.084c0-14.161-9.237-26.197-22-30.421V98.029c0-21.505-17.495-39-39-39h-70.848
	C358.563,59.029,341,76.593,341,98.181v8.848c0,5.523,4.477,10,10,10h78c1.654,0,3,1.346,3,3v67.013H32.042
	C14.374,187.042,0,201.416,0,219.084c0,14.161,9.237,26.198,22,30.421v86.725c0,47.471,35.444,86.815,81.257,92.97l-6.7,6.7
	c-3.905,3.905-3.905,10.237,0,14.142c1.953,1.953,4.512,2.929,7.071,2.929s5.119-0.977,7.071-2.929l19.999-19.999h250.603
	l19.999,19.999c1.953,1.953,4.512,2.929,7.071,2.929c2.559,0,5.119-0.977,7.071-2.929c3.905-3.905,3.906-10.237,0-14.142l-6.7-6.7
	C454.556,423.045,490,383.701,490,336.23v-86.725C502.763,245.282,512,233.245,512,219.084z M429,97.029h-67.966
	c0.598-10.026,8.944-18,19.118-18H451c10.477,0,19,8.523,19,19v89h-18v-67C452,107.347,441.682,97.029,429,97.029z M246,207.042
	v130.772l-1.41-0.731c-12.905-6.692-28.316-6.692-41.244,0.01l-0.07,0.037c-7.11,3.685-15.593,3.674-22.693-0.034
	c-6.446-3.367-13.522-5.05-20.595-5.05c-7.02,0-14.037,1.658-20.429,4.973c-0.01,0.005-0.105,0.054-0.116,0.06
	c-7.129,3.697-15.64,3.703-22.774,0.018c-0.014-0.007-0.027-0.014-0.041-0.021c-12.906-6.693-28.316-6.693-41.224-0.001L74,337.802
	v-130.76H246z M32.042,207.042H54v24.083H32.042c-6.64,0-12.042-5.402-12.042-12.042C20,212.444,25.402,207.042,32.042,207.042z
	 M396.187,410.042H115.812C75.112,410.042,42,376.93,42,336.23v-85.104h12v102.213c0,3.66,1.943,7.116,5.07,9.018
	s7.088,2.038,10.343,0.353l15.198-7.881c7.13-3.697,15.64-3.703,22.773-0.019c0.014,0.007,0.028,0.015,0.042,0.022
	c12.907,6.692,28.317,6.692,41.193,0.016c0.01-0.005,0.105-0.054,0.116-0.06c7.078-3.669,15.521-3.656,22.588,0.034
	c12.875,6.725,28.261,6.748,41.179,0.051l0.07-0.036c7.142-3.703,15.669-3.702,22.81,0l15.2,7.882
	c1.517,0.788,3.188,1.178,4.857,1.178c1.909,0,3.816-0.511,5.485-1.525c3.13-1.901,5.074-5.358,5.074-9.021V251.126h204v85.104
	C470,376.93,436.888,410.042,396.187,410.042z M479.958,231.126H266v-24.083h213.958c6.64,0,12.042,5.402,12.042,12.042
	C492,225.724,486.598,231.126,479.958,231.126z"/>
<path d="M310.615,369.223h-0.553c-5.523,0-10,4.477-10,10s4.477,10,10,10h0.553c5.523,0,10-4.477,10-10
	S316.138,369.223,310.615,369.223z"/>
<path d="M437.086,301.59c-5.523,0-10,4.477-10,10c0,31.779-25.854,57.633-57.633,57.633H341.5c-5.523,0-10,4.477-10,10
	s4.477,10,10,10h27.953c42.807,0,77.633-34.826,77.633-77.633C447.086,306.067,442.609,301.59,437.086,301.59z"/>
<path d="M335.931,177.313c1.077,0.371,2.173,0.546,3.251,0.546c4.151,0,8.031-2.606,9.456-6.752l1.625-4.728
	c1.796-5.223-0.982-10.912-6.206-12.708c-5.222-1.798-10.912,0.982-12.708,6.206l-1.625,4.728
	C327.929,169.828,330.708,175.517,335.931,177.313z"/>
<path d="M347.31,144.215c1.077,0.37,2.173,0.546,3.251,0.546c4.152,0,8.031-2.606,9.457-6.752l1.625-4.729
	c1.795-5.223-0.983-10.913-6.206-12.708c-5.224-1.796-10.913,0.983-12.708,6.206l-1.625,4.729
	C339.309,136.73,342.087,142.419,347.31,144.215z"/>
<path d="M364.5,170.243c0,5.523,4.477,10,10,10s10-4.477,10-10v-5c0-5.523-4.477-10-10-10s-10,4.477-10,10V170.243z"/>
<path d="M374.5,145.243c5.523,0,10-4.477,10-10v-5c0-5.523-4.477-10-10-10s-10,4.477-10,10v5
	C364.5,140.766,368.977,145.243,374.5,145.243z"/>
<path d="M398.903,166.379l1.625,4.728c1.425,4.146,5.304,6.752,9.456,6.752c1.078,0,2.175-0.176,3.251-0.546
	c5.223-1.795,8.001-7.485,6.206-12.708l-1.625-4.728c-1.796-5.223-7.486-8.004-12.708-6.206
	C399.885,155.467,397.107,161.156,398.903,166.379z"/>
<path d="M406.437,126.778c-1.796-5.223-7.483-8-12.708-6.206c-5.223,1.795-8.001,7.485-6.206,12.708l1.625,4.729
	c1.426,4.146,5.304,6.752,9.457,6.752c1.078,0,2.175-0.176,3.251-0.546c5.223-1.795,8.001-7.485,6.206-12.708L406.437,126.778z"/>
<g>
</g>
<g>
</g>
<g>
</g>
<g>
</g>
<g>
</g>
<g>
</g>
<g>
</g>
<g>
</g>
<g>
</g>
<g>
</g>
<g>
</g>
<g>
</g>
<g>
</g>
<g>
</g>
<g>
</g>
</svg>
