<svg id="Capa_1" enable-background="new 0 0 512 512" height="512" viewBox="0 0 512 512" width="512" xmlns="http://www.w3.org/2000/svg"><g><path d="m93.47 210.395h325.06c9.223 0 18.078 1.608 26.299 4.559v-130.042l-11.572-2.537c-116.784-25.608-237.73-25.608-354.515 0l-11.572 2.537v130.043c8.222-2.951 17.076-4.56 26.3-4.56z" fill="#d09080"/><path d="m60.415 332.372h391.171v68.859h-391.171z" fill="#d09080"/><path d="m433.257 82.374c-9.45-2.072-18.928-3.977-28.428-5.713v88.09c0 14.312-11.71 25.695-26.022 25.645-.092 0-.184 0-.277 0h-311.359v24.559c8.221-2.951 17.075-4.559 26.299-4.559h325.06c9.223 0 18.078 1.608 26.299 4.559v-130.043z" fill="#c67d66"/><path d="m411.585 332.372v7.777c0 22.689-18.393 41.081-41.081 41.081h-310.089v20h391.171v-68.859h-40.001z" fill="#c67d66"/><path d="m7.5 306.141h52.915v144.38h-52.915z" fill="#d09080"/><path d="m451.585 306.141h52.915v144.38h-52.915z" fill="#d09080"/><path d="m40.415 306.141v101.682c0 12.536-10.163 22.699-22.699 22.699h-10.216v20h52.915v-144.38h-20z" fill="#c67d66"/><path d="m484.5 306.141v101.682c0 12.536-10.163 22.699-22.699 22.699h-10.216v20h52.915v-144.38h-20z" fill="#c67d66"/><path d="m231.591 120.943h-120.397c-5.47 0-9.904 4.434-9.904 9.904v79.549h140.204v-79.549c0-5.47-4.434-9.904-9.903-9.904z" fill="#f6f9f9"/><path d="m400.806 120.943h-120.397c-5.47 0-9.904 4.434-9.904 9.904v79.549h140.204v-79.549c0-5.47-4.434-9.904-9.903-9.904z" fill="#f6f9f9"/><path d="m231.591 120.943h-30.096v31.726c0 20.836-16.891 37.727-37.727 37.727h-62.477v20h140.204v-79.549c-.001-5.47-4.435-9.904-9.904-9.904z" fill="#e7ecf1"/><path d="m400.806 120.943h-30.096v31.726c0 20.836-16.891 37.727-37.727 37.727h-62.477v20h140.204v-79.549c-.001-5.47-4.435-9.904-9.904-9.904z" fill="#e7ecf1"/><path d="m50.415 306.141v-17.691c0-23.779 19.276-43.055 43.055-43.055h325.06c23.779 0 43.055 19.276 43.055 43.055v17.691h35v-17.691c0-43.04-35.016-78.055-78.055-78.055h-325.06c-43.039 0-78.055 35.015-78.055 78.055v17.691z" fill="#f6e7c6"/><path d="m60.415 306.141v26.231h391.171v-26.231h10v-17.691c0-23.779-19.276-43.055-43.055-43.055h-325.061c-23.779 0-43.055 19.276-43.055 43.055v17.691z" fill="#f4d8a5"/><path d="m418.53 245.395h-3.632c4.234 6.665 6.687 14.573 6.687 23.055v12.191c0 17.525-14.207 31.731-31.731 31.731h-329.439v20h391.171v-26.231h10v-17.691c-.001-23.778-19.277-43.055-43.056-43.055z" fill="#f1cb86"/><path d="m67.171 214.966v-153.487h-43.806v192.692c8.9-18.129 24.624-32.319 43.806-39.205z" fill="#d09080"/><path d="m47.171 61.479v113.499c0 11.198-5.866 21.492-15.328 27.482-2.967 1.878-5.799 3.951-8.479 6.2v45.511c8.901-18.129 24.625-32.319 43.806-39.205v-153.487z" fill="#c67d66"/><path d="m488.635 254.171v-192.692h-43.806v153.488c19.182 6.885 34.906 21.075 43.806 39.204z" fill="#d09080"/><path d="m468.635 61.479v124.24c0 12.94-12.25 21.541-23.806 18.591v10.656c19.182 6.886 34.906 21.076 43.806 39.205v-192.692z" fill="#c67d66"/><path d="m7.5 458.021h52.915c4.143 0 7.5-3.358 7.5-7.5v-41.791h376.17v41.791c0 4.142 3.357 7.5 7.5 7.5h52.915c4.143 0 7.5-3.358 7.5-7.5v-144.38c0-4.142-3.357-7.5-7.5-7.5h-.415v-10.191c0-12.853-2.849-25.053-7.949-36.003v-190.968c0-4.142-3.357-7.5-7.5-7.5h-43.807c-4.143 0-7.5 3.358-7.5 7.5v14.11c-98.809-21.674-196.889-25.79-296.33-11.964-4.103.571-6.966 4.359-6.396 8.461.57 4.103 4.355 6.964 8.462 6.396 96.41-13.406 193.506-9.63 288.586 11.218l5.678 1.245v114.031c-6.403-1.441-12.604-2.081-19.12-2.081v-72.049c0-9.597-7.807-17.404-17.403-17.404h-120.397c-9.597 0-17.403 7.807-17.403 17.404v72.049h-14.012v-72.049c0-9.597-7.807-17.404-17.403-17.404h-120.397c-9.597 0-17.403 7.807-17.403 17.404v72.049c-6.509 0-12.711.638-19.12 2.081v-114.031c10.553-2.314 19.767-4.333 33.858-6.908 4.074-.745 6.774-4.652 6.029-8.727-.746-4.074-4.648-6.771-8.727-6.029-11.682 2.135-20.778 4.031-31.161 6.308v-14.11c0-4.142-3.357-7.5-7.5-7.5h-43.806c-4.143 0-7.5 3.358-7.5 7.5v190.969c-5.1 10.949-7.949 23.149-7.949 36.003v10.191h-.415c-4.143 0-7.5 3.358-7.5 7.5v87.619c0 4.142 3.357 7.5 7.5 7.5s7.5-3.358 7.5-7.5v-80.119h37.915v129.38h-37.915v-14.262c0-4.142-3.357-7.5-7.5-7.5s-7.5 3.358-7.5 7.5v21.761c0 4.143 3.357 7.5 7.5 7.5zm60.415-64.29v-53.858h376.17v53.858zm429.085 49.29h-37.915v-129.38h37.915zm-44.671-374.042h28.807v161.219c-8.036-8.631-17.831-15.603-28.807-20.342 0-21.782 0-126.1 0-140.877zm-174.323 61.868c0-1.326 1.078-2.404 2.403-2.404h120.396c1.325 0 2.403 1.078 2.403 2.404v72.049h-125.202zm-169.215 0c0-1.326 1.078-2.404 2.403-2.404h120.396c1.325 0 2.403 1.078 2.403 2.404v72.049h-125.202zm-77.927-61.868h28.807v140.877c-10.976 4.738-20.771 11.711-28.807 20.342zm-7.949 229.662v-10.191c0-10.963 2.514-21.35 6.995-30.616.135-.24.257-.489.365-.745 8.018-16.092 22.004-28.709 39.042-34.935.266-.079.525-.172.778-.279 7.319-2.577 15.186-3.979 23.375-3.979h325.06c8.189 0 16.057 1.402 23.375 3.98.252.107.512.2.777.279 17.038 6.226 31.024 18.844 39.042 34.936.108.256.23.504.365.744 4.481 9.265 6.995 19.652 6.995 30.616v10.191h-19.999v-10.192c0-27.876-22.679-50.555-50.556-50.555h-8.798c-4.143 0-7.5 3.358-7.5 7.5s3.357 7.5 7.5 7.5h8.798c19.605 0 35.556 15.95 35.556 35.555v10.191h-2.501c-4.143 0-7.5 3.358-7.5 7.5v18.731h-376.169v-18.731c0-4.142-3.357-7.5-7.5-7.5h-2.501v-10.191c0-19.605 15.95-35.555 35.556-35.555h281.263c4.143 0 7.5-3.358 7.5-7.5s-3.357-7.5-7.5-7.5h-281.263c-27.877 0-50.556 22.679-50.556 50.555v10.191z"/></g></svg>