<svg height="480pt" viewBox="0 -19 480 480" width="480pt" xmlns="http://www.w3.org/2000/svg" xmlns:xlink="http://www.w3.org/1999/xlink"><linearGradient id="a"><stop offset="0" stop-color="#e93e3a"/><stop offset=".35" stop-color="#ed683c"/><stop offset=".7" stop-color="#f3903f"/><stop offset="1" stop-color="#fdc70c"/></linearGradient><linearGradient id="b" gradientUnits="userSpaceOnUse" x1="144" x2="144" xlink:href="#a" y1="440.962945" y2="-32.589055"/><linearGradient id="c" gradientUnits="userSpaceOnUse" x1="240" x2="240" xlink:href="#a" y1="440.962945" y2="-32.589055"/><linearGradient id="d" gradientUnits="userSpaceOnUse" x1="240" x2="240" xlink:href="#a" y1="441.394945" y2="-32.157055"/><linearGradient id="e" gradientUnits="userSpaceOnUse" x1="220" x2="220" xlink:href="#a" y1="440.962945" y2="-32.589055"/><linearGradient id="f" gradientUnits="userSpaceOnUse" x1="264" x2="264" xlink:href="#a" y1="440.962945" y2="-32.589055"/><linearGradient id="g" gradientUnits="userSpaceOnUse" x1="316" x2="316" xlink:href="#a" y1="440.962945" y2="-32.589055"/><linearGradient id="h" gradientUnits="userSpaceOnUse" x1="368" x2="368" xlink:href="#a" y1="440.962945" y2="-32.589055"/><linearGradient id="i" gradientUnits="userSpaceOnUse" x1="424" x2="424" xlink:href="#a" y1="440.962945" y2="-32.589055"/><path d="m168 313.394531h-48c-4.417969 0-8 3.582031-8 8v48c0 4.417969 3.582031 8 8 8h48c4.417969 0 8-3.582031 8-8v-48c0-4.417969-3.582031-8-8-8zm-8 48h-32v-32h32zm0 0" fill="url(#b)"/><path d="m280 225.394531h-80c-8.835938 0-16 7.164063-16 16v32c0 8.835938 7.164062 16 16 16h80c8.835938 0 16-7.164062 16-16v-32c0-8.835937-7.164062-16-16-16zm0 24h-32v-8h32zm-48-8v8h-32v-8zm-32 24h32v8h-32zm48 8v-8h32v8zm0 0" fill="url(#c)"/><path d="m439.304688 385.945312c-1.992188-10.519531-8.117188-19.804687-17.011719-25.769531-8.890625-5.96875-19.800781-8.121093-30.292969-5.980469v-141.488281l14.34375 14.34375c9.75 9.75 25.5625 9.75 35.3125 0s9.75-25.5625 0-35.3125l-22.34375-22.34375h28.6875c13.253906 0 24-10.746093 24-24v-96c0-13.253906-10.746094-24-24-24h-172.6875l-18.402344-18.398437c-9.363281-9.328125-24.503906-9.328125-33.871094 0l-184.695312 184.742187c-9.75 9.75-9.75 25.5625 0 35.3125s25.5625 9.75 35.3125 0l14.34375-14.34375v167.742188c-8.710938-10.105469-22.800781-13.714844-35.296875-9.039063-12.5 4.671875-20.761719 16.640625-20.703125 29.984375-17.671875 0-32 14.328125-32 32 0 4.417969 3.582031 8 8 8h464c4.417969 0 8-3.582031 8-8-.03125-23.679687-17.296875-43.8125-40.695312-47.449219zm-71.367188-16.222656c0-.113281.0625-.207031.0625-.328125v-48c0-4.417969-3.582031-8-8-8h-48c-4.417969 0-8 3.582031-8 8v48c0 4.417969 3.582031 8 8 8h48c1.457031-.035156 2.875-.484375 4.089844-1.289062-2.660156 5.378906-4.058594 11.292969-4.089844 17.289062v.800781c-15.675781 3.246094-27.914062 15.515626-31.121094 31.199219h-32.878906v-120c0-4.417969-3.582031-8-8-8h-96c-4.417969 0-8 3.582031-8 8v120h-48.710938c-2.933593-17.152343-14.898437-31.382812-31.289062-37.214843v-186.785157h272v160.207031c-3.0625 2.308594-5.777344 5.042969-8.0625 8.121094zm-15.9375-40.328125v32h-32v-32zm78.34375-126.34375c3.496094 3.507813 3.496094 9.183594 0 12.6875-3.511719 3.488281-9.175781 3.488281-12.6875 0l-46.34375-46.34375h25.375zm25.65625-153.65625v96c0 4.417969-3.582031 8-8 8h-208c-4.417969 0-8-3.582031-8-8v-96c0-4.417969 3.582031-8 8-8h208c4.417969 0 8 3.582031 8 8zm-393.65625 166.34375c-3.507812 3.496094-9.179688 3.496094-12.6875 0-3.488281-3.507812-3.488281-9.175781 0-12.6875l184.742188-184.71875c3.117187-3.082031 8.132812-3.082031 11.25 0l7.0625 7.0625h-12.710938c-13.253906 0-24 10.746094-24 24v12.6875zm153.65625-131.03125v60.6875c0 13.253907 10.746094 24 24 24h108.6875l16 16h-249.375zm-197.847656 340.6875c4.207031-7.230469 13.289062-9.980469 20.800781-6.296875 3.070313 1.519532 6.769531.910156 9.191406-1.511718 2.425781-2.421876 3.039063-6.117188 1.527344-9.191407-1.089844-2.171875-1.660156-4.570312-1.671875-7-.023438-7.800781 5.601562-14.472656 13.296875-15.769531 7.691406-1.296875 15.195313 3.167969 17.726563 10.546875 1.101562 3.367187 4.335937 5.570313 7.871093 5.359375.375.003906.746094-.039062 1.105469-.136719 14.585938.015625 27.320312 9.882813 30.984375 24zm181.847656 0v-112h80v112zm145.367188 0c3.285156-9.453125 12.128906-15.847656 22.136718-16 .273438 0 1.082032.121094 1.351563.128907 2.535156.097656 4.96875-1.011719 6.558593-2.992188 1.585938-1.980469 2.140626-4.59375 1.488282-7.046875-.5625-1.984375-.867188-4.03125-.902344-6.089844 0-13.253906 10.746094-24 24-24s24 10.746094 24 24c0 4.417969 3.582031 8 8 8 14.585938.015625 27.320312 9.882813 30.984375 24zm0 0" fill="url(#d)"/><path d="m224 337.394531h-16v16h8v16h-8v16h16c4.417969 0 8-3.582031 8-8v-32c0-4.417969-3.582031-8-8-8zm0 0" fill="url(#e)"/><path d="m240 137.394531h16v-32c9.011719.667969 15.988281 8.171875 16 17.207031v14.792969h16v-14.75c-.015625-8.421875-3.246094-16.515625-9.03125-22.632812 7.96875-6.335938 11.050781-17.027344 7.679688-26.632813-3.375-9.609375-12.464844-16.023437-22.648438-15.984375h-16c-4.417969 0-8 3.582031-8 8zm16-64h8c4.417969 0 8 3.582031 8 8s-3.582031 8-8 8h-8zm0 0" fill="url(#f)"/><path d="m304 137.394531h32v-16h-24v-16h16v-16h-16v-16h24v-16h-32c-4.417969 0-8 3.582031-8 8v64c0 4.417969 3.582031 8 8 8zm0 0" fill="url(#g)"/><path d="m360 99.28125 16.800781 33.691406c1.632813 3.371094 5.386719 5.15625 9.03125 4.300782 3.648438-.859376 6.210938-4.132813 6.167969-7.878907v-72h-16v38.113281l-16.800781-33.6875c-1.632813-3.375-5.386719-5.160156-9.03125-4.300781-3.648438.855469-6.210938 4.128907-6.167969 7.875v72h16zm0 0" fill="url(#h)"/><path d="m416 137.394531h16v-64h16v-16h-48v16h16zm0 0" fill="url(#i)"/></svg>