<?xml version="1.0" encoding="utf-8"?>
<svg version="1.1" xmlns:xlink="http://www.w3.org/1999/xlink" width="22px" height="22px" xmlns="http://www.w3.org/2000/svg">
  <g transform="matrix(1 0 0 1 -896 -339 )">
    <path d="M 904.893617392815 347.100813061876  L 907 340.61803398875  L 909.106382607185 347.100813061876  L 915.922779910659 347.100813061876  L 910.408198651737 351.107390870624  L 912.514581258922 357.590169943749  L 907 353.583592135001  L 901.485418741078 357.590169943749  L 903.591801348263 351.107390870624  L 898.077220089341 347.100813061876  L 904.893617392815 347.100813061876  Z " fill-rule="nonzero" fill="#ffef00" stroke="none" />
    <path d="M 904.530346128812 346.600813061876  L 907 339  L 909.469653871188 346.600813061876  L 917.461621679247 346.600813061876  L 910.995983904029 351.298373876249  L 913.465637775217 358.899186938124  L 907 354.201626123751  L 900.534362224783 358.899186938124  L 903.004016095971 351.298373876249  L 896.538378320753 346.600813061876  L 904.530346128812 346.600813061876  Z M 907 342.2360679775  L 905.256888656818 347.600813061876  L 899.616061857929 347.600813061876  L 904.179586600555 350.916407864999  L 902.436475257373 356.281152949375  L 907 352.965558146251  L 911.563524742627 356.281152949375  L 909.820413399445 350.916407864999  L 914.383938142071 347.600813061876  L 908.743111343182 347.600813061876  L 907 342.2360679775  Z " fill-rule="nonzero" fill="#ffef00" stroke="none" />
  </g>
</svg>